<svg xmlns="http://www.w3.org/2000/svg" width="600" height="400" viewBox="0 0 600 400">
  <rect width="600" height="400" fill="#f9f9f9"/>
  <!-- Sky gradient -->
  <rect width="600" height="400" fill="url(#sky2)" opacity="0.3"/>
  <defs>
    <linearGradient id="sky2" x1="0%" y1="0%" x2="0%" y2="100%">
      <stop offset="0%" stop-color="#e8e8dc"/>
      <stop offset="100%" stop-color="#556B2F"/>
    </linearGradient>
  </defs>
  <!-- Birds silhouette -->
  <path d="M80 120 Q90 105 100 115 Q100 100 110 115 Q115 95 125 115" fill="#556B2F" opacity="0.4"/>
  <path d="M250 80 Q260 65 270 75 Q270 60 280 75 Q285 55 295 75" fill="#556B2F" opacity="0.3"/>
  <path d="M420 140 Q430 125 440 135 Q440 120 450 135 Q455 115 465 135" fill="#556B2F" opacity="0.4"/>
  <!-- Water/wetland -->
  <path d="M0 250 Q150 240 300 250 Q450 260 600 250 L600 400 L0 400Z" fill="#556B2F" opacity="0.08"/>
  <!-- Reeds -->
  <rect x="100" y="250" width="2" height="60" fill="#556B2F" opacity="0.3"/>
  <rect x="120" y="245" width="2" height="70" fill="#556B2F" opacity="0.3"/>
  <rect x="140" y="252" width="2" height="55" fill="#556B2F" opacity="0.3"/>
  <rect x="450" y="248" width="2" height="65" fill="#556B2F" opacity="0.3"/>
  <rect x="470" y="243" width="2" height="70" fill="#556B2F" opacity="0.3"/>
  <rect x="490" y="250" width="2" height="60" fill="#556B2F" opacity="0.3"/>
  <!-- Trees silhouette -->
  <path d="M200 250 Q190 200 200 180 Q210 200 200 250" fill="#556B2F" opacity="0.15"/>
  <path d="M380 250 Q370 190 380 170 Q390 190 380 250" fill="#556B2F" opacity="0.15"/>
  <path d="M300 250 Q290 210 300 195 Q310 210 300 250" fill="#556B2F" opacity="0.1"/>
  <!-- Tag -->
  <rect x="20" y="20" width="80" height="28" rx="14" fill="#556B2F"/>
  <text x="60" y="39" font-family="sans-serif" font-size="12" fill="white" text-anchor="middle">Nature</text>
</svg>
